<svg version="1.1" id="Layer_1" xmlns="http://www.w3.org/2000/svg" xmlns:xlink="http://www.w3.org/1999/xlink" x="0px" y="0px"
	 width="100%" viewBox="0 0 912 1024" enable-background="new 0 0 912 1024" xml:space="preserve">
<path fill="#000000" opacity="1.000000" stroke="none" 
	d="
M913.000000,768.531738 
	C905.587952,772.647949 899.854919,778.571533 893.512390,783.625183 
	C845.218567,822.104980 796.902405,860.559937 748.927307,899.434814 
	C735.886963,910.001831 723.969849,921.957581 711.569092,933.310730 
	C690.572510,952.533386 669.581726,971.762512 648.646606,991.051941 
	C646.298584,993.215454 643.440857,993.931580 640.588074,994.752075 
	C607.343689,1004.313477 574.088501,1013.837219 540.839722,1023.383667 
	C539.725830,1023.703491 538.650085,1024.156494 537.278320,1024.773682 
	C535.611084,1025.000000 534.222229,1025.000000 532.416626,1025.000000 
	C531.019287,1023.465271 530.304504,1021.643677 529.011841,1020.445435 
	C523.366455,1015.212463 522.141479,1009.232422 524.903381,1002.073669 
	C528.141052,993.681824 527.162903,985.212769 525.056213,976.672424 
	C524.360413,973.851685 523.166992,972.399597 520.548767,971.468872 
	C513.178711,968.849121 505.944641,965.832520 498.522125,963.380371 
	C494.036621,961.898560 490.263397,959.809570 488.137268,955.498962 
	C485.737122,950.632751 481.668854,948.490051 476.530823,948.381592 
	C467.465363,948.190125 461.000519,944.371033 458.047791,935.576172 
	C454.810883,925.934937 445.765381,923.477661 438.092133,919.558167 
	C433.373474,917.148010 430.148315,914.474060 430.204742,908.806946 
	C430.308899,898.349609 424.399902,891.987366 416.484497,885.675537 
	C353.197662,835.210388 289.919739,784.722656 227.307648,733.425781 
	C154.763687,673.992065 80.615265,616.586609 7.475813,557.909729 
	C5.531968,556.350281 3.573316,554.809204 1.310789,553.129761 
	C1.000000,536.312439 1.000000,519.624878 1.000000,502.468658 
	C2.258984,490.074341 2.868001,478.103302 2.643785,466.126038 
	C2.548079,461.013580 4.158737,457.445740 8.076759,454.103851 
	C18.597626,445.130096 28.892740,435.900665 40.483597,428.278961 
	C42.278740,427.098511 43.944180,425.573425 46.303574,425.693207 
	C52.410812,426.003204 57.241226,423.452148 61.324093,419.124390 
	C62.119957,418.280792 63.204224,417.697235 63.947338,416.817871 
	C70.500069,409.064056 78.573021,406.747345 88.339806,409.506592 
	C92.353729,410.640564 95.207596,409.091064 95.718124,404.597748 
	C96.339958,399.124603 99.812935,397.931915 104.737137,397.583405 
	C115.182922,396.844208 125.626434,395.806335 135.997498,394.363464 
	C144.085129,393.238281 150.457794,388.451263 155.531662,382.375366 
	C160.432129,376.507141 164.709686,370.104340 169.061096,363.798462 
	C171.040909,360.929382 173.497879,359.035950 176.688461,357.689301 
	C189.730881,352.184509 202.711075,346.532043 215.701752,340.905243 
	C217.808167,339.992889 219.851730,338.935425 221.871674,337.970215 
	C221.656326,337.254913 221.662933,336.815643 221.462814,336.678833 
	C214.208328,331.720062 214.178589,331.713959 217.241638,323.402161 
	C218.253082,320.657532 219.377121,318.064850 215.771362,316.224762 
	C214.170654,315.407928 214.387115,313.724243 214.583862,312.204865 
	C215.032211,308.742310 215.454590,305.275970 215.945526,301.819397 
	C216.329559,299.115479 218.130600,298.059082 220.659256,297.426880 
	C229.537827,295.207001 238.327087,292.618530 247.235291,290.533417 
	C251.490875,289.537384 253.673553,287.444611 254.599136,283.102539 
	C257.040741,271.648468 257.201935,271.776886 268.751160,271.642090 
	C287.074341,271.428253 305.395233,271.004517 323.718628,270.835449 
	C327.568878,270.799866 329.646271,269.793549 328.254089,265.639984 
	C327.126190,262.274994 328.993927,260.180969 331.174713,258.308075 
	C334.151550,255.751495 333.788391,253.783066 330.651154,251.703140 
	C316.472809,242.303116 313.862885,226.909500 310.258575,212.048828 
	C310.144379,211.577927 310.086609,211.009598 310.240387,210.569870 
	C312.992615,202.701279 312.183441,195.712341 307.029602,188.670319 
	C304.515808,185.235535 307.159180,180.210495 307.963776,176.072083 
	C309.021729,170.630142 308.498260,165.578491 307.137024,160.335205 
	C305.998993,155.951675 303.777161,151.538895 306.359406,146.804337 
	C307.031586,145.571869 301.303650,133.363815 300.073364,132.632660 
	C296.404144,130.451965 292.187775,128.933777 292.942749,123.146835 
	C293.717407,117.209099 296.731689,112.795288 302.122101,111.166817 
	C320.176239,105.712555 334.475403,95.320900 345.302887,80.014793 
	C348.003876,76.196571 351.757812,74.607697 356.197693,73.788727 
	C364.698608,72.220688 373.129730,70.275490 381.627716,68.689964 
	C385.147430,68.033272 387.919220,66.524536 389.624817,63.391777 
	C393.559906,56.163879 399.727539,51.782665 407.190613,48.673046 
	C412.868317,46.307320 418.533051,43.703472 423.742279,40.463844 
	C434.204773,33.957130 445.851044,32.747040 457.646820,31.743053 
	C469.245911,30.755806 480.833618,29.635456 492.429565,28.610321 
	C495.045624,28.379055 497.411743,27.377316 499.137177,25.576658 
	C506.798798,17.581215 515.975281,16.463963 526.109924,19.229923 
	C528.300232,19.827711 530.459656,19.748577 532.403870,18.586344 
	C545.073181,11.012765 558.901062,12.256905 572.695923,13.209707 
	C574.522339,13.335857 576.376099,13.791417 578.165710,13.603744 
	C587.710083,12.602844 596.297302,14.847450 603.855103,20.808947 
	C605.888000,22.412443 607.942566,22.525175 610.367554,21.639971 
	C618.500549,18.671127 626.661926,15.772559 634.871338,13.022992 
	C640.498230,11.138395 641.565796,5.541786 644.830200,1.297520 
	C645.750000,1.000000 646.500000,1.000000 647.625000,1.000005 
	C655.718933,4.086109 663.452332,7.136730 671.148987,10.277501 
	C673.852966,11.380936 675.859192,10.015854 677.363770,8.300379 
	C683.391479,1.427557 689.868286,1.203461 696.721130,6.753769 
	C707.398499,15.401741 719.399353,13.053611 731.400391,11.251396 
	C737.647339,10.313292 743.919739,9.535052 750.193787,8.796041 
	C751.598572,8.630573 753.152832,8.152646 755.065491,9.718641 
	C752.912354,12.555710 750.744324,15.405526 748.583618,18.260916 
	C745.367615,22.511158 742.151245,26.761177 738.945679,31.019268 
	C736.718140,33.978256 733.264709,36.817013 738.509827,40.246964 
	C739.660767,40.999607 739.324951,42.720455 739.196655,44.031025 
	C738.338623,52.798183 737.532593,61.572250 736.514771,70.321411 
	C735.602600,78.163162 738.554565,85.413101 739.714966,92.930443 
	C740.499146,98.010498 741.790039,103.018394 742.984314,108.027573 
	C744.452576,114.186295 741.651611,119.830208 741.010925,125.731178 
	C740.940125,126.383148 740.507019,127.007431 740.488403,127.651703 
	C740.068481,142.140854 732.200867,152.237671 721.505615,160.986954 
	C715.722778,165.717667 710.709534,171.379440 705.213074,176.474396 
	C702.732666,178.773636 701.935303,180.994461 703.100586,184.399002 
	C705.738586,192.106445 708.030212,199.938232 710.254700,207.778458 
	C711.136780,210.887527 712.645813,213.281891 715.666138,214.441940 
	C727.842468,219.118607 734.358521,228.474808 738.109497,240.515823 
	C739.351135,244.501587 739.370789,248.381104 739.275940,252.327026 
	C739.198059,255.570343 740.361755,257.488800 743.198181,259.091858 
	C752.912170,264.581787 762.432495,270.414124 772.140564,275.914917 
	C775.018005,277.545319 776.527649,279.715576 777.144714,282.857330 
	C783.165039,313.511597 789.159851,344.171265 795.365906,374.788086 
	C796.212280,378.963409 795.394348,382.009308 792.618958,385.148865 
	C786.866211,391.656494 786.506836,398.064789 790.999023,405.508850 
	C793.580811,409.787048 795.807617,414.346924 798.861389,418.259277 
	C805.930725,427.316406 808.058350,437.793457 809.338623,448.845154 
	C811.977234,471.623047 815.129822,494.341217 818.023865,517.089966 
	C818.295959,519.228821 818.324951,521.410767 818.312500,523.571838 
	C818.179749,546.557434 818.496582,569.547424 817.471497,592.525452 
	C817.335693,595.569092 816.469788,597.506226 813.683228,598.799072 
	C810.818726,600.128113 808.166443,601.911011 805.315796,603.274780 
	C801.215881,605.236328 800.619873,607.748657 803.039062,611.636292 
	C809.726501,622.383240 815.751465,633.568298 822.870544,644.012878 
	C828.824463,652.747986 831.529114,662.217224 832.316162,672.439697 
	C832.938904,680.527344 835.250977,687.652466 841.703796,693.100403 
	C843.563416,694.670471 845.227600,695.973755 847.783386,695.972839 
	C849.938721,695.972046 852.144836,696.728149 854.241394,696.462341 
	C869.541138,694.522766 880.439087,704.622131 892.909302,710.404785 
	C894.736877,711.252258 895.276917,713.126282 896.055542,714.763916 
	C901.559021,726.338867 907.042175,737.923523 912.765869,749.752563 
	C913.000000,756.021179 913.000000,762.042297 913.000000,768.531738 
M797.461487,438.259552 
	C797.014526,435.941223 796.073608,433.846893 794.839722,431.827576 
	C789.888367,423.724274 785.015808,415.572937 780.097961,407.449097 
	C775.792480,400.337036 776.626343,387.578766 782.098145,381.414154 
	C784.299011,378.934540 785.083069,376.495514 784.428284,373.243744 
	C778.815063,345.367950 773.238586,317.484375 767.813232,289.571594 
	C767.176819,286.297333 765.715393,284.205963 762.892822,282.598724 
	C754.930420,278.064789 747.366455,272.694702 739.067139,268.928284 
	C731.146729,265.333801 728.868103,259.780273 728.776001,251.751877 
	C728.640198,239.905090 724.588684,229.995651 712.752991,224.861542 
	C710.479370,223.875290 708.485474,222.263138 706.284180,221.086227 
	C703.935608,219.830521 702.525574,218.006683 701.758118,215.442108 
	C698.321472,203.959167 694.871094,192.478485 691.219666,181.062866 
	C690.209839,177.905746 690.876892,175.761810 693.221436,173.535385 
	C700.954285,166.191940 708.089600,158.148285 716.291626,151.389450 
	C724.951904,144.252899 729.543274,135.564026 730.594177,124.653427 
	C730.720825,123.338654 731.077393,122.040390 731.392578,120.750404 
	C732.670471,115.519836 733.050354,110.370590 731.734192,104.988251 
	C727.663025,88.340370 723.995178,71.632614 727.634216,54.315823 
	C728.809875,48.721279 728.596924,43.532879 722.349670,40.459049 
	C719.757202,39.183529 721.278687,37.078213 722.512451,35.427509 
	C725.759888,31.082659 729.018494,26.746103 732.810730,21.688646 
	C730.997925,21.918114 730.190918,21.960936 729.410339,22.127903 
	C715.784546,25.042503 702.750366,24.639393 691.118103,15.636728 
	C688.879822,13.904465 686.546387,14.101015 684.374512,16.185495 
	C682.939880,17.562410 681.129578,18.546774 679.688416,19.918119 
	C676.951660,22.522238 674.211426,22.974586 670.642944,21.350000 
	C665.347229,18.939106 659.721375,17.257568 654.404114,14.888316 
	C651.047852,13.392878 648.815491,13.671116 647.154114,17.129522 
	C646.292664,18.922646 645.135315,20.495731 643.024780,21.228247 
	C631.699646,25.158981 620.401489,29.167402 609.102356,33.172642 
	C606.945496,33.937176 605.004517,34.022156 603.003784,32.540169 
	C595.062683,26.657976 586.444519,22.767776 576.215210,23.901217 
	C575.572632,23.972418 574.899048,23.688894 574.235840,23.658943 
	C560.797485,23.052042 547.244446,21.484333 534.843811,28.879343 
	C532.153137,30.483900 529.216797,30.457253 526.137878,29.720526 
	C518.227295,27.827723 510.763306,27.950413 504.652191,34.602123 
	C501.701416,37.813950 497.551147,38.729290 493.316193,39.099667 
	C484.863373,39.838921 476.422638,40.756561 467.957977,41.311211 
	C451.423737,42.394611 435.146332,44.254692 420.840607,53.770874 
	C418.915100,55.051704 416.744720,56.047295 414.568695,56.853752 
	C406.625244,59.797649 400.407867,64.728310 396.317108,72.211205 
	C394.226288,76.035797 390.854980,77.589523 386.686584,78.363785 
	C377.693146,80.034256 368.786621,82.171944 359.794525,83.850449 
	C356.298065,84.503098 353.651703,85.948532 351.524567,88.801636 
	C341.077148,102.814598 328.624298,114.154404 311.135132,118.692131 
	C309.700684,119.064308 308.364716,119.826111 306.994843,120.433571 
	C306.069763,120.843773 305.196869,121.330971 304.969452,122.786797 
	C308.639740,126.591003 314.408112,127.878036 318.279480,132.294220 
	C314.840698,135.951401 314.659210,139.657654 317.609039,143.545013 
	C318.733521,145.026840 318.210236,146.776703 317.417786,148.298492 
	C315.928619,151.158157 316.115356,153.999039 316.978882,157.013626 
	C318.770447,163.267731 320.429077,169.560608 318.350739,176.124619 
	C316.340271,182.474319 317.420959,188.200165 321.823578,193.311188 
	C324.040070,195.884308 323.657471,198.893478 322.635712,201.837326 
	C319.385498,211.201843 322.398468,219.914093 325.581451,228.515991 
	C327.935181,234.876816 331.884552,240.070145 337.636871,244.010971 
	C341.694885,246.791031 345.865631,249.616287 349.701660,254.419891 
	C339.835876,260.649414 336.892578,269.537079 341.087677,280.042877 
	C338.708099,281.481537 337.014679,281.263733 335.380676,281.286224 
	C315.055573,281.565948 294.729950,281.811584 274.405090,282.107666 
	C264.063202,282.258301 265.569244,281.000824 263.346039,291.256836 
	C262.371429,295.752838 260.386505,298.054810 255.826569,299.068787 
	C247.062439,301.017639 238.419815,303.517120 229.740494,305.839386 
	C228.031342,306.296692 225.901505,306.410583 225.611954,308.797028 
	C225.377487,310.729340 227.115250,311.255463 228.345520,311.958618 
	C231.203949,313.592285 231.817886,315.711395 230.320938,318.631622 
	C229.565094,320.106110 229.221237,321.793854 228.449020,323.257385 
	C226.970123,326.060303 227.549377,327.927704 230.534164,329.139984 
	C233.372009,330.292603 236.220749,331.544281 235.298599,335.547180 
	C234.341309,339.702698 235.137238,344.254425 229.458740,346.501770 
	C215.681870,351.954102 202.297180,358.394043 188.542740,363.907898 
	C181.617981,366.683868 176.224380,370.585449 172.353989,377.050995 
	C166.129196,387.449585 158.381500,396.463043 147.289093,402.112122 
	C145.188187,403.182068 143.233582,404.152740 140.802521,404.378052 
	C130.864853,405.298920 120.948677,406.449127 111.017921,407.448700 
	C107.400696,407.812805 105.069847,409.022675 104.049408,413.100861 
	C102.024376,421.193878 101.735466,421.135010 93.090996,420.359161 
	C90.607635,420.136292 88.111855,419.936798 85.659142,419.511230 
	C80.591385,418.631989 76.209129,419.498871 72.441063,423.366547 
	C69.661453,426.219635 66.382202,428.578979 63.431450,431.274200 
	C60.507114,433.945282 57.416138,435.762207 53.192596,435.492432 
	C49.793701,435.275330 46.854988,436.801941 43.946476,438.691254 
	C33.833435,445.260559 25.048861,453.434326 15.938917,461.224884 
	C14.334723,462.596741 13.356012,464.080627 13.292568,466.310822 
	C12.563181,491.949799 10.798626,517.557312 11.041850,543.228027 
	C11.069745,546.172180 11.944662,548.191589 14.347981,549.972961 
	C19.164005,553.542786 23.757963,557.412415 28.438797,561.164246 
	C94.877319,614.416504 162.179230,666.579163 228.082382,720.513062 
	C293.977936,774.440613 360.482697,827.626465 426.997498,880.790771 
	C434.397980,886.705872 439.613617,892.672852 439.537354,902.406738 
	C439.497803,907.453369 442.209534,910.312256 446.842010,912.388733 
	C454.361176,915.759033 462.416962,918.813049 465.482086,927.745544 
	C468.085907,935.333496 473.751801,938.431458 481.439941,938.709961 
	C487.296692,938.922058 491.949493,941.216797 494.663116,946.762146 
	C496.693420,950.911072 500.314911,953.040466 504.579956,954.534973 
	C512.907532,957.453247 521.134705,960.656921 529.417969,963.703064 
	C531.500000,964.468689 533.588684,965.208252 534.015930,967.744324 
	C536.098938,980.109375 539.651367,992.304260 535.184143,1005.040894 
	C532.736145,1012.020508 535.290039,1014.137451 542.233459,1012.137085 
	C573.423889,1003.151428 604.603577,994.128113 635.819031,985.230530 
	C639.300964,984.238098 642.236633,982.636108 644.867432,980.224060 
	C661.692932,964.797546 678.541077,949.395691 695.393433,933.998474 
	C711.506531,919.276611 727.062622,903.877991 743.877991,890.006470 
	C775.236755,864.137939 807.351257,839.186279 839.112366,813.804443 
	C860.069763,797.056519 880.967773,780.234070 901.866333,763.412598 
	C903.847839,761.817688 906.190674,760.633850 904.395081,757.002502 
	C898.637207,745.358093 893.267700,733.521301 887.786255,721.741028 
	C886.986755,720.022888 885.968445,718.608765 884.256592,717.694275 
	C874.044861,712.239197 864.381592,705.296936 851.786316,706.719910 
	C848.847107,707.052002 845.808594,706.463684 842.813660,706.360046 
	C841.117188,706.301331 839.476990,706.207581 838.242432,704.812256 
	C830.948303,696.567322 822.418396,689.372314 822.420349,676.613525 
	C822.422180,665.108093 818.018372,654.729492 811.408142,645.103149 
	C804.910828,635.641174 799.323730,625.551208 793.403687,615.696777 
	C788.231201,607.086731 790.378418,599.449402 799.180908,594.774902 
	C800.358276,594.149658 801.483948,593.403076 802.710022,592.898499 
	C806.395630,591.381775 807.744446,588.857117 807.705261,584.743347 
	C807.539978,567.413147 807.478577,550.073853 807.873291,532.749207 
	C808.136780,521.183167 806.539429,509.853577 805.074707,498.468140 
	C802.529053,478.680573 800.073547,458.881409 797.461487,438.259552 
z"/>
<path fill="#000000" opacity="1.000000" stroke="none" 
	d="
M101.180740,951.609924 
	C100.826401,948.955872 99.314407,946.843384 100.251915,944.384094 
	C104.079872,942.662170 106.180130,944.001465 107.107475,947.940491 
	C108.093834,952.130188 109.257713,956.278015 111.319962,960.540649 
	C112.424019,956.318115 113.574074,952.106934 114.613266,947.868469 
	C115.153824,945.663696 115.665375,943.767517 118.582619,943.628113 
	C121.891006,943.470032 122.351868,945.735535 122.896790,948.031616 
	C123.927628,952.375305 124.898872,956.733032 126.207207,962.449707 
	C127.922325,956.614075 129.319458,952.110718 130.558044,947.564087 
	C131.488831,944.147522 133.257294,942.755432 136.916718,944.527710 
	C137.066513,948.591248 135.327911,952.246338 134.339951,956.038513 
	C132.913467,961.513794 131.289017,966.937317 129.810150,972.399414 
	C129.190002,974.689819 128.254349,976.348389 125.442932,976.205505 
	C122.871056,976.074829 122.145271,974.489380 121.658432,972.364380 
	C120.694458,968.156555 119.602509,963.978027 118.199760,958.320557 
	C116.762337,963.876038 115.617645,968.078369 114.604012,972.312073 
	C114.103844,974.401184 113.490860,976.117126 110.870575,976.177612 
	C108.129036,976.240784 107.152580,974.707031 106.565033,972.309753 
	C104.901199,965.521118 103.074615,958.772339 101.180740,951.609924 
z"/>
<path fill="#000000" opacity="1.000000" stroke="none" 
	d="
M399.907349,964.289368 
	C399.882812,967.242249 399.903137,969.741821 399.826141,972.238403 
	C399.758026,974.446106 399.110901,976.186646 396.375641,976.100769 
	C393.668121,976.015747 393.097900,974.208191 393.052887,972.039795 
	C392.983795,968.709595 393.107025,965.372925 392.956207,962.047729 
	C392.873993,960.235229 393.656647,957.454956 390.561951,957.555542 
	C388.233459,957.631226 386.596863,959.452148 386.425018,961.850891 
	C386.187408,965.166870 386.283783,968.508423 386.279327,971.838989 
	C386.276093,974.250427 385.822327,976.200562 382.758209,976.076660 
	C379.949402,975.963074 379.694702,974.049255 379.696747,971.902527 
	C379.701996,966.405762 379.704163,960.908997 379.696655,955.412231 
	C379.693848,953.377991 380.259949,951.229736 382.634674,951.860657 
	C387.702057,953.207092 393.095825,948.801147 397.966644,953.018921 
	C399.368011,954.232300 400.701538,952.466858 402.016022,951.923706 
	C407.943451,949.474182 412.914368,952.452942 413.221222,958.868042 
	C413.435822,963.355286 413.244659,967.861023 413.274384,972.358276 
	C413.290009,974.721863 412.497070,976.213623 409.817749,976.100830 
	C407.416748,975.999756 406.721863,974.567932 406.726685,972.459656 
	C406.734283,969.128296 406.795776,965.793945 406.674957,962.466675 
	C406.607574,960.611694 407.432892,957.912964 404.607910,957.592224 
	C401.931671,957.288330 400.394318,959.175781 400.026459,961.841309 
	C399.935760,962.498657 399.946045,963.169861 399.907349,964.289368 
z"/>
<path fill="#000000" opacity="1.000000" stroke="none" 
	d="
M223.763245,971.657043 
	C222.429993,975.664795 220.266632,977.210876 216.103180,975.300293 
	C216.832733,970.698608 219.161148,966.659729 220.770432,962.400146 
	C222.821045,956.972290 224.920670,951.549988 227.322800,946.272644 
	C228.847321,942.923279 233.438477,942.438171 234.752548,945.532166 
	C238.872360,955.232178 242.549683,965.120239 246.450851,975.069153 
	C241.996475,977.068176 239.324570,976.257690 238.062149,972.187134 
	C237.238144,969.530090 235.878922,967.718323 232.799408,968.003723 
	C229.550919,968.304810 225.535492,966.565063 223.763245,971.657043 
M228.831635,961.023376 
	C230.144470,962.032043 231.498840,962.055420 233.092239,961.143372 
	C233.132980,958.890625 232.334839,957.004395 230.548508,954.711487 
	C229.738174,957.062988 229.159927,958.740967 228.831635,961.023376 
z"/>
<path fill="#000000" opacity="1.000000" stroke="none" 
	d="
M214.266266,955.011414 
	C214.251190,960.997009 214.194092,966.484619 214.240829,971.971313 
	C214.262054,974.462952 213.625565,976.667664 210.729431,976.039246 
	C207.866577,975.418152 205.266647,976.010498 202.526855,976.329102 
	C197.795746,976.879333 194.559052,974.721558 192.763733,970.314758 
	C188.417297,959.646179 194.390915,951.504944 206.989929,951.024231 
	C208.148743,949.215210 207.579987,947.159973 207.661606,945.215942 
	C207.751663,943.070496 208.374680,941.745972 210.824371,941.751404 
	C213.121567,941.756531 214.206970,942.775513 214.215515,945.035828 
	C214.227478,948.194885 214.249115,951.354004 214.266266,955.011414 
M198.468445,965.883484 
	C200.549561,970.873413 203.479813,971.998108 206.320648,968.697693 
	C208.754211,965.870422 207.966797,962.325378 207.162933,959.211182 
	C206.658646,957.257568 204.371048,956.231384 202.241837,956.805908 
	C198.828644,957.726807 198.739883,960.820801 198.383179,963.622498 
	C198.320908,964.111694 198.390518,964.617615 198.468445,965.883484 
z"/>
<path fill="#000000" opacity="1.000000" stroke="none" 
	d="
M85.128983,952.190063 
	C89.906929,962.329468 84.079010,973.244141 75.026756,976.034180 
	C65.312416,979.028320 55.540936,973.327393 53.173534,963.300293 
	C51.343994,955.551208 55.625954,947.246338 63.104156,944.039734 
	C71.130943,940.597839 79.501999,943.584473 85.128983,952.190063 
M68.804878,947.503662 
	C67.522308,947.841919 66.174057,948.027100 64.968277,948.544373 
	C59.002636,951.103638 56.010746,958.528076 58.508064,964.385071 
	C61.173149,970.635620 67.903839,973.450439 74.254333,970.970337 
	C79.761368,968.819519 82.408455,964.157715 81.727364,957.809448 
	C81.122139,952.168274 77.066917,948.715210 68.804878,947.503662 
z"/>
<path fill="#000000" opacity="1.000000" stroke="none" 
	d="
M155.766266,952.995728 
	C160.807892,957.328613 161.444778,962.619934 160.127228,968.273865 
	C158.974640,973.220032 155.143326,976.104004 150.011795,976.383301 
	C144.006027,976.710205 139.969910,974.406128 138.207169,969.262024 
	C136.367905,963.894653 136.591309,958.481079 140.717224,954.323059 
	C144.949249,950.058167 150.187958,949.986694 155.766266,952.995728 
M148.652130,956.636353 
	C144.330688,958.788086 142.558472,965.387939 145.312485,969.073303 
	C147.061569,971.413879 150.804520,971.406555 152.589142,969.059021 
	C155.381149,965.386353 153.651154,958.739807 148.652130,956.636353 
z"/>
<path fill="#000000" opacity="1.000000" stroke="none" 
	d="
M361.454468,976.253174 
	C352.506195,973.984253 351.497955,964.881165 353.270935,958.735779 
	C354.906952,953.065186 360.787537,950.002747 366.739655,951.326416 
	C372.906769,952.697876 376.763794,958.443970 376.071625,965.229004 
	C375.395508,971.856384 371.193390,976.045227 364.864136,976.364075 
	C363.871552,976.414062 362.872375,976.333679 361.454468,976.253174 
M360.889679,969.581848 
	C362.763763,971.202393 364.953644,971.369446 366.822205,970.004761 
	C369.650787,967.939026 368.935425,964.682312 368.852142,961.756836 
	C368.770996,958.906738 367.270477,956.848816 364.412628,956.706238 
	C361.222015,956.547119 359.681030,958.797668 359.414764,961.747559 
	C359.194092,964.192505 358.924469,966.725830 360.889679,969.581848 
z"/>
<path fill="#000000" opacity="1.000000" stroke="none" 
	d="
M274.009766,970.625305 
	C274.374969,964.344177 276.550659,962.016785 282.797180,960.747925 
	C284.296021,960.443420 286.721527,960.983704 286.090393,958.331604 
	C285.628937,956.392517 283.716980,956.304016 281.936493,956.750305 
	C280.199432,957.185730 278.560303,958.174011 276.659821,957.862488 
	C274.989624,954.893921 275.877625,953.105286 278.828979,951.968201 
	C287.393677,948.668152 292.999634,952.397095 293.251587,961.464417 
	C293.358521,965.312622 292.355103,969.263611 295.683563,972.733887 
	C297.411346,974.535461 294.556854,977.216919 291.205017,976.164795 
	C288.339569,975.265442 285.924622,975.513184 283.113098,976.160095 
	C278.850037,977.140808 275.641418,975.298401 274.009766,970.625305 
M286.470367,966.822266 
	C284.472107,963.921814 282.801605,965.934692 281.256866,967.290527 
	C280.469177,967.982056 280.334106,969.214478 281.334808,969.897583 
	C283.488403,971.367737 285.029785,970.203003 286.288849,968.425171 
	C286.463776,968.178040 286.447632,967.795593 286.470367,966.822266 
z"/>
<path fill="#000000" opacity="1.000000" stroke="none" 
	d="
M297.997681,973.840149 
	C297.741394,972.137634 297.429108,970.783569 298.739929,969.634949 
	C301.754395,969.481506 304.922272,972.264893 308.233673,969.686279 
	C307.737701,966.679565 305.016602,966.494995 303.158691,965.449646 
	C298.233917,962.678833 296.644806,958.864624 298.965851,954.892151 
	C301.107178,951.227295 308.463470,949.602356 311.981506,952.024475 
	C314.007904,953.419495 313.156464,955.130859 312.824799,956.589783 
	C310.125244,958.231079 307.239655,954.997314 304.927582,957.696655 
	C305.225433,960.295288 307.647491,960.251221 309.274017,961.080933 
	C312.946899,962.954407 315.902466,965.427246 314.946625,969.961060 
	C313.980316,974.544373 310.487366,976.349426 306.033997,976.361755 
	C303.236938,976.369507 300.301605,976.679260 297.997681,973.840149 
z"/>
<path fill="#000000" opacity="1.000000" stroke="none" 
	d="
M350.220215,954.939819 
	C349.729004,957.486450 348.162537,957.247437 346.678284,956.894958 
	C343.678192,956.182617 340.919800,956.391296 339.344055,959.382996 
	C337.788422,962.336609 337.635681,965.515869 339.659576,968.347351 
	C341.750397,971.272583 344.692566,971.074219 347.732819,970.033325 
	C348.336853,969.826477 348.999939,969.791992 349.822906,969.644409 
	C351.644470,973.672913 350.149780,975.696228 346.172668,976.215759 
	C341.144073,976.872498 336.520172,976.327942 333.532959,971.443970 
	C330.370239,966.273254 330.301483,960.957214 333.451721,955.926514 
	C336.351868,951.295044 341.161865,950.542358 346.201385,951.125366 
	C348.172272,951.353455 350.301270,951.718811 350.220215,954.939819 
z"/>
<path fill="#000000" opacity="1.000000" stroke="none" 
	d="
M255.513763,969.178955 
	C255.766708,969.695679 255.860275,969.840271 255.986862,969.945129 
	C257.645569,971.320007 261.886353,971.220398 259.838837,974.785706 
	C258.142487,977.739502 254.786819,976.674500 252.221893,975.526062 
	C249.279709,974.208618 248.777496,971.427002 248.574463,968.412415 
	C248.285812,964.126038 249.581711,959.827271 246.291016,955.629395 
	C243.933990,952.622559 248.193069,950.063171 250.082352,948.088196 
	C251.511719,946.593933 254.547562,946.713440 255.377380,950.119995 
	C255.775482,951.754333 257.473907,951.401855 258.667542,951.859863 
	C261.358429,952.892395 261.093842,956.082153 259.591003,956.427002 
	C252.851562,957.973450 255.815155,963.047302 255.213303,966.802979 
	C255.111191,967.440063 255.309967,968.125305 255.513763,969.178955 
z"/>
<path fill="#000000" opacity="1.000000" stroke="none" 
	d="
M181.597305,958.503906 
	C181.610001,953.736755 181.634750,949.420166 181.656891,945.103516 
	C181.666290,943.269897 182.076782,941.835327 184.357254,941.763855 
	C186.547012,941.695190 188.009857,942.522400 188.022232,944.805054 
	C188.073593,954.280212 188.059937,963.756165 187.991608,973.231201 
	C187.977036,975.250793 186.705627,976.154846 184.693909,976.082153 
	C182.632782,976.007568 181.696838,974.909973 181.684235,972.920715 
	C181.654739,968.265259 181.633118,963.609863 181.597305,958.503906 
z"/>
<path fill="#000000" opacity="1.000000" stroke="none" 
	d="
M263.696442,958.999756 
	C263.701019,954.188354 263.724701,949.876282 263.705170,945.564331 
	C263.694855,943.291687 264.267456,941.732544 267.022736,941.733521 
	C269.785919,941.734497 270.317535,943.296448 270.311859,945.570801 
	C270.290039,954.360779 270.313293,963.150940 270.309967,971.940979 
	C270.309174,974.053101 270.093018,976.005310 267.270660,976.103943 
	C264.300812,976.207581 263.669922,974.411499 263.691437,971.937866 
	C263.727417,967.791931 263.698914,963.645386 263.696442,958.999756 
z"/>
<path fill="#000000" opacity="1.000000" stroke="none" 
	d="
M164.626984,957.157593 
	C164.141129,952.739746 165.870148,950.994263 169.753387,951.826538 
	C171.871658,952.280518 173.660461,951.323181 175.604645,951.050842 
	C177.542801,950.779236 178.927887,951.439148 179.091492,953.565979 
	C179.224304,955.292542 179.123535,957.092224 176.767792,957.173706 
	C171.676620,957.349670 170.992783,960.631165 171.166092,964.721741 
	C171.278503,967.375244 171.169525,970.039551 171.115265,972.698120 
	C171.071335,974.850586 170.112137,976.105042 167.776062,976.109192 
	C165.342056,976.113464 164.650070,974.737549 164.656174,972.597107 
	C164.670364,967.610596 164.638199,962.623901 164.626984,957.157593 
z"/>
<path fill="#000000" opacity="1.000000" stroke="none" 
	d="
M324.002655,968.725769 
	C328.055267,969.003540 327.381195,971.677307 327.144989,973.845398 
	C326.872314,976.348267 324.766235,976.116394 322.975708,976.093628 
	C320.677643,976.064453 319.948608,974.648560 319.837952,972.563843 
	C319.695312,969.876587 320.822083,968.559998 324.002655,968.725769 
z"/>
<path fill="#000000" opacity="1.000000" stroke="none" 
	d="
M71.727600,949.407288 
	C75.140854,949.861511 77.860321,950.496704 76.165649,954.670654 
	C72.986320,955.162476 69.218231,952.524170 67.004974,956.493652 
	C65.814568,958.628601 65.708580,961.035034 67.083237,963.148010 
	C69.369095,966.661438 72.683662,964.826538 75.857338,964.402283 
	C77.996483,967.487000 76.290245,968.906128 73.617493,969.820312 
	C68.842712,971.453369 63.546326,969.140991 61.480469,964.607056 
	C59.130371,959.449280 61.003647,953.096436 65.592079,950.668457 
	C67.390427,949.716919 69.287056,949.190613 71.727600,949.407288 
z"/>
</svg>